<svg xmlns="http://www.w3.org/2000/svg"><symbol id="arrow" viewBox="0 0 16 16">
<path d="M8 0L6.59 1.41L12.17 7H0V9H12.17L6.59 14.59L8 16L16 8L8 0Z" fill="#5A98D0"/>
</symbol><symbol id="icon-cross" viewBox="0 0 16 16">
<path d="M14.3602 15.78L8.00022 9.40997L1.64022 15.78L0.220215 14.36L6.59022 7.99997L0.220215 1.63997L1.64022 0.219971L8.00022 6.58997L14.3602 0.229971L15.7702 1.63997L9.41022 7.99997L15.7702 14.36L14.3602 15.78Z"/>
</symbol><symbol id="logo-footer" viewBox="0 0 48 48">
<circle cx="16" cy="24" r="16" fill="#98C3E8"/>
<circle cx="32" cy="24" r="15" fill="white" stroke="#316099" stroke-width="2"/>
<path d="M38.3 31L33.38 17H29.96L25.06 31H28.04L28.88 28.48H34.46L35.3 31H38.3ZM31.68 20.18L33.6 25.9H29.76L31.68 20.18Z" fill="#316099"/>
</symbol><symbol id="logo" viewBox="0 0 48 48">
<circle cx="16" cy="24" r="16" fill="#316099"/>
<circle cx="32" cy="24" r="15" fill="white" stroke="#316099" stroke-width="2"/>
<path d="M39.3 30L34.38 16H30.96L26.06 30H29.04L29.88 27.48H35.46L36.3 30H39.3ZM32.68 19.18L34.6 24.9H30.76L32.68 19.18Z" fill="#316099"/>
</symbol></svg>